# xmcd
#
# Track frame offsets:
#	150
#	16399
#	31273
#	49245
#	66253
#	82868
#	99794
#	117652
#	135625
#	156197
#	169524
#	185902
#	201512
#	219692
#	244819
#	261447
#	278136
#	291110
#
# Disc length: 4070 seconds
#
# Revision: 1
# Processed by: cddbd v1.5.2PL0 Copyright (c) Steve Scherf et al.
# Submitted via: audiograbber 1.83.01
#
DISCID=0f0fe412
DTITLE=CDX - Volume 408 October 2006
DYEAR=2006
DGENRE=Country
TTITLE0=Gary Allan - A Feelin' Like That
TTITLE1=Jimmy Buffett - Bama Breeze [Single Edit Version]
TTITLE2=Gretchen Wilson - Come To Bed (f/ John Rich)
TTITLE3=Lee Ann Womack - Finding My Way Back Home [Radio Edit - Shortened Lyric
TTITLE3=]
TTITLE4=George Jones - Footlights (w/ Merle Haggard)
TTITLE5=Blue County - I Get To
TTITLE6=Rockie Lynne - More
TTITLE7=Jake Owen - Startin' With Me
TTITLE8=Buddy Jewell - Wes Tyrell
TTITLE9=B.B. Watson - Fool Proof
TTITLE10=Todd Fritsch - What's Wrong With Me
TTITLE11=Tim Murphy - Crazy
TTITLE12=Dave Ayton - Genie
TTITLE13=Kim Lewis - He Lives
TTITLE14=Charlie Allen - I Did This To Me
TTITLE15=Rachel Rivero - Kisses Day and Night
TTITLE16=Jason Green - Rock In My Cowboy Boots
TTITLE17=Kevin Crawford - There Ain't Nothing Like A Coupe De Ville
EXTD=
EXTT0=
EXTT1=
EXTT2=
EXTT3=
EXTT4=
EXTT5=
EXTT6=
EXTT7=
EXTT8=
EXTT9=
EXTT10=
EXTT11=
EXTT12=
EXTT13=
EXTT14=
EXTT15=
EXTT16=
EXTT17=
PLAYORDER=
